<svg width="2560" height="1440" viewBox="0 0 2560 1440" fill="none" xmlns="http://www.w3.org/2000/svg">
<path d="M1097.24 785L1118.71 654.091H1136.61L1115.13 785H1097.24ZM1038.24 751.25L1041.24 733.352H1141.98L1138.98 751.25H1038.24ZM1051.21 785L1072.69 654.091H1090.59L1069.11 785H1051.21ZM1045.84 705.739L1048.78 687.841H1149.52L1146.58 705.739H1045.84Z" fill="#89B4FA"/>
<path d="M1345.24 785L1366.71 654.091H1384.61L1363.13 785H1345.24ZM1286.24 751.25L1289.24 733.352H1389.98L1386.98 751.25H1286.24ZM1299.21 785L1320.69 654.091H1338.59L1317.11 785H1299.21ZM1293.84 705.739L1296.78 687.841H1397.52L1394.58 705.739H1293.84Z" fill="#A6E3A1"/>
<path d="M973.236 785L994.713 654.091H1012.61L991.134 785H973.236ZM914.237 751.25L917.241 733.352H1017.98L1014.98 751.25H914.237ZM927.213 785L948.69 654.091H966.588L945.111 785H927.213ZM921.844 705.739L924.784 687.841H1025.52L1022.58 705.739H921.844Z" fill="#CDD6F4"/>
<path d="M1469.24 785L1490.71 654.091H1508.61L1487.13 785H1469.24ZM1410.24 751.25L1413.24 733.352H1513.98L1510.98 751.25H1410.24ZM1423.21 785L1444.69 654.091H1462.59L1441.11 785H1423.21ZM1417.84 705.739L1420.78 687.841H1521.52L1518.58 705.739H1417.84Z" fill="#FAB387"/>
<path d="M1593.24 785L1614.71 654.091H1632.61L1611.13 785H1593.24ZM1534.24 751.25L1537.24 733.352H1637.98L1634.98 751.25H1534.24ZM1547.21 785L1568.69 654.091H1586.59L1565.11 785H1547.21ZM1541.84 705.739L1544.78 687.841H1645.52L1642.58 705.739H1541.84Z" fill="#F38BA8"/>
<path d="M1221.24 785L1242.71 654.091H1260.61L1239.13 785H1221.24ZM1162.24 751.25L1165.24 733.352H1265.98L1262.98 751.25H1162.24ZM1175.21 785L1196.69 654.091H1214.59L1193.11 785H1175.21ZM1169.84 705.739L1172.78 687.841H1273.52L1270.58 705.739H1169.84Z" fill="#89DCEB"/>
</svg>
